<?xml version="1.0" standalone="no"?>
<!DOCTYPE svg PUBLIC "-//W3C//DTD SVG 20010904//EN"
 "http://www.w3.org/TR/2001/REC-SVG-20010904/DTD/svg10.dtd">
<svg version="1.0" xmlns="http://www.w3.org/2000/svg"
 width="421.000000pt" height="421.000000pt" viewBox="0 0 421.000000 421.000000"
 preserveAspectRatio="xMidYMid meet">
<metadata>
Created by potrace 1.14, written by Peter Selinger 2001-2017
</metadata>
<g transform="translate(0.000000,421.000000) scale(0.100000,-0.100000)"
fill="#000000" stroke="none">
<path d="M1930 3364 c-269 -57 -519 -239 -629 -455 -74 -148 -92 -232 -102
-484 -4 -121 -9 -228 -11 -237 -3 -22 -21 -23 -53 -2 -23 15 -27 15 -49 1 -46
-31 -50 -104 -17 -311 13 -77 14 -81 31 -71 9 6 9 10 -1 16 -11 7 -11 9 2 9
23 0 31 -36 10 -52 -15 -12 -15 -11 -1 6 13 17 13 19 0 14 -8 -2 -16 -15 -18
-27 -3 -17 1 -21 15 -19 10 2 21 10 25 18 5 12 7 12 7 -2 1 -13 10 -18 34 -18
17 -1 173 0 346 0 287 1 319 2 358 20 24 10 43 16 43 13 0 -4 7 2 15 13 17 22
19 15 5 -20 -9 -25 -8 -26 29 -26 35 0 40 4 61 46 20 38 22 47 9 55 -8 5 -20
9 -26 9 -16 0 -16 27 -3 106 19 109 14 102 77 110 37 4 63 3 75 -5 10 -6 24
-11 32 -11 15 0 21 -19 32 -98 4 -29 11 -55 15 -58 5 -3 9 -16 9 -29 0 -31 52
-82 107 -106 39 -17 77 -18 399 -20 196 -1 359 3 364 7 11 12 25 81 14 71 -5
-5 -9 -14 -9 -20 0 -5 -5 -12 -12 -14 -13 -5 -6 34 10 54 5 7 7 18 4 25 -2 7
2 19 9 26 11 10 13 7 9 -20 l-5 -33 10 29 c17 52 29 201 20 241 -5 21 -20 49
-33 63 l-25 25 -35 -22 c-33 -20 -35 -20 -42 -4 -5 10 -11 119 -16 243 -7 237
-21 314 -78 443 -52 120 -166 256 -287 344 -76 55 -224 122 -330 149 -113 28
-284 32 -394 8z m-43 -367 c10 -11 441 -8 448 3 9 14 253 6 300 -11 32 -11 40
-19 41 -39 1 -14 7 -38 13 -55 9 -21 12 -83 9 -206 -3 -167 -4 -176 -22 -171
-13 3 -17 1 -12 -6 5 -9 -6 -12 -38 -12 -65 0 -180 -26 -239 -54 -28 -14 -55
-22 -61 -19 -5 4 -7 0 -4 -8 4 -10 -2 -15 -19 -14 -15 0 -30 -8 -37 -19 -6
-11 -21 -31 -33 -44 -16 -19 -21 -35 -18 -69 l2 -43 -108 0 c-97 0 -133 9 -96
23 7 4 6 6 -5 6 -9 1 -18 -5 -21 -11 -2 -7 -4 -1 -3 14 0 14 5 24 10 21 5 -4
6 7 2 23 -4 16 -8 36 -9 44 -4 27 -34 51 -66 52 -23 1 -30 5 -26 15 3 9 0 13
-7 10 -7 -2 -20 1 -28 7 -36 28 -193 66 -272 66 -27 0 -38 4 -38 15 0 8 -7 15
-15 15 -13 0 -15 27 -15 183 0 132 3 186 12 195 10 10 10 15 -2 22 -13 8 -12
10 3 10 9 0 17 4 17 9 0 5 -8 12 -17 14 -15 4 -14 5 3 6 11 0 25 6 31 12 6 6
35 14 64 18 65 9 246 7 256 -2z m-352 -497 c-3 -5 -11 -10 -16 -10 -6 0 -7 5
-4 10 3 6 11 10 16 10 6 0 7 -4 4 -10z m78 -117 c-7 -2 -21 -2 -30 0 -10 3 -4
5 12 5 17 0 24 -2 18 -5z m1025 0 c-10 -2 -28 -2 -40 0 -13 2 -5 4 17 4 22 1
32 -1 23 -4z m-1093 -33 c27 -7 27 -8 5 -8 -14 0 -36 4 -50 8 -20 6 -21 8 -5
8 11 0 34 -4 50 -8z m1195 6 c0 -2 -7 -7 -16 -10 -8 -3 -12 -2 -9 4 6 10 25
14 25 6z m-973 -42 c-3 -3 -12 -4 -19 -1 -8 3 -5 6 6 6 11 1 17 -2 13 -5z
m710 0 c-3 -3 -12 -4 -19 -1 -8 3 -5 6 6 6 11 1 17 -2 13 -5z m-837 -25 c-58
-5 -143 -9 -190 -9 -48 -1 -91 -6 -100 -13 -13 -10 -13 -10 -2 5 17 21 54 24
247 25 l150 0 -105 -8z m1221 -6 c9 -9 -29 -9 -123 1 -16 1 -24 -2 -21 -8 4
-6 -1 -6 -13 -1 -10 5 -71 12 -134 16 -94 6 -78 6 83 4 116 -1 202 -6 208 -12z
m-1357 -37 c-21 -15 -30 -14 -19 3 3 6 14 11 23 11 13 0 13 -2 -4 -14z m251
-7 c26 -7 56 -28 86 -59 47 -51 69 -101 70 -166 0 -31 2 -35 9 -19 6 13 9 15
9 5 1 -35 -14 -61 -48 -82 -33 -21 -50 -23 -206 -27 -162 -3 -297 9 -337 30
-10 5 -22 18 -28 29 -8 16 -8 18 5 14 8 -3 12 -11 8 -17 -4 -6 0 -8 11 -4 11
4 15 3 10 -4 -3 -6 3 -5 15 3 13 8 21 23 21 40 0 35 18 81 29 74 11 -7 27 12
34 45 11 43 66 110 105 126 80 34 119 36 207 12z m925 -17 c33 -20 54 -44 77
-87 18 -33 31 -65 29 -71 -3 -7 3 -10 13 -7 12 3 20 -6 29 -34 8 -21 18 -48
24 -61 11 -22 37 -26 50 -7 5 6 8 3 8 -6 0 -39 -112 -59 -341 -59 -179 0 -234
12 -262 59 -9 16 -17 40 -16 53 0 22 1 22 9 3 7 -16 9 -12 10 20 1 46 31 119
63 153 12 13 39 33 59 43 88 45 174 45 248 1z m50 32 c0 -8 -19 -13 -24 -6 -3
5 1 9 9 9 8 0 15 -2 15 -3z m-523 -78 c0 -9 -16 -17 -43 -21 -51 -7 -144 4
-144 17 0 6 -7 7 -16 4 -8 -3 -12 -2 -9 4 3 6 52 10 109 10 82 0 103 -3 103
-14z m903 4 c-14 -9 -7 -14 13 -11 5 1 6 -3 2 -8 -3 -6 -13 -7 -22 -4 -11 4
-14 3 -9 -5 4 -7 1 -12 -9 -12 -10 0 -13 5 -9 13 14 25 27 37 38 37 6 0 4 -5
-4 -10z m-1965 -26 c13 -5 14 -8 3 -15 -9 -6 -8 -9 7 -9 17 0 21 -7 22 -37 1
-21 0 -32 -3 -25 -3 6 -12 12 -20 12 -8 0 -14 8 -14 18 0 10 -5 23 -12 30 -7
7 -8 12 -2 12 5 0 2 5 -6 10 -17 11 -1 13 25 4z m1929 -20 c14 -5 14 -9 0 -37
-14 -26 -18 -28 -26 -14 -5 10 -6 26 -3 37 7 22 7 22 29 14z m-931 -11 c-13
-2 -33 -2 -45 0 -13 2 -3 4 22 4 25 0 35 -2 23 -4z m774 -105 c-3 -8 -6 -5 -6
6 -1 11 2 17 5 13 3 -3 4 -12 1 -19z m-1610 -20 c-3 -7 -5 -2 -5 12 0 14 2 19
5 13 2 -7 2 -19 0 -25z m-215 -124 c-4 -23 -2 -26 12 -21 10 4 15 3 11 -3 -15
-24 -35 -9 -35 26 0 19 4 33 9 30 4 -3 6 -18 3 -32z m832 14 c-19 -34 -50 -58
-75 -58 -15 0 -29 -4 -31 -10 -3 -11 -189 -30 -290 -30 -52 0 -68 3 -68 14 0
8 -6 17 -12 20 -10 5 -10 7 1 12 11 5 11 8 0 15 -8 5 40 6 111 3 144 -7 312 8
344 30 26 19 29 19 20 4z m663 -32 c117 -1 204 -4 195 -8 -9 -4 -12 -7 -7 -8
6 -1 1 -5 -10 -10 -18 -8 -18 -9 -2 -9 16 -1 17 -3 3 -16 -9 -10 -34 -15 -72
-15 -89 0 -289 21 -292 31 -2 5 -11 9 -21 9 -15 0 -61 34 -61 45 0 3 12 -1 28
-7 17 -7 107 -11 239 -12z"/>
<path d="M1610 2221 c-92 -49 -97 -193 -10 -245 28 -16 54 -22 35 -8 -5 4 -16
15 -24 25 -13 16 -12 17 13 7 41 -15 77 -12 114 10 39 24 64 26 56 5 -11 -27
5 -16 21 15 65 125 -78 259 -205 191z m44 -56 c9 -25 -5 -45 -30 -45 -14 0
-27 7 -30 15 -10 25 4 45 30 45 13 0 26 -7 30 -15z"/>
<path d="M2462 2220 c-111 -68 -88 -229 38 -265 l25 -7 -25 25 c-14 13 -29 22
-34 19 -5 -3 -6 0 -2 7 6 9 11 9 22 0 20 -17 87 -5 125 22 22 16 34 19 37 11
8 -24 20 -11 31 34 11 42 10 51 -11 92 -39 77 -134 106 -206 62z m43 -70 c0
-18 -6 -26 -23 -28 -24 -4 -38 18 -28 44 3 9 15 14 28 12 17 -2 23 -10 23 -28z"/>
<path d="M2165 1850 c-11 -5 -15 -9 -10 -9 6 -1 21 -21 34 -46 22 -41 27 -45
62 -45 37 0 38 1 28 28 -13 37 -56 82 -77 81 -9 0 -26 -4 -37 -9z"/>
<path d="M977 378 c-9 -44 10 -82 46 -92 39 -10 2144 -7 2171 4 33 12 55 55
37 73 -7 6 -11 8 -9 2 2 -5 -1 -12 -7 -14 -5 -3 -16 -11 -24 -19 -22 -22
-2164 -14 -2156 8 4 8 3 11 -1 7 -4 -4 -13 -2 -21 4 -10 9 -13 8 -14 -2 -1 -8
-5 4 -8 26 l-7 40 -7 -37z"/>
</g>
</svg>
